<svg id="Layer_1" data-name="Layer 1" xmlns="http://www.w3.org/2000/svg" viewBox="0 0 220.04 220.04"><defs><style>.cls-1{fill:#30387f;}.cls-2{fill:#2a2b66;}.cls-3{fill:#2e316d;}</style></defs><title>OurStory Logo</title><path class="cls-1" d="M69.92,143.53a9.14,9.14,0,0,1-.66,3.51,8.18,8.18,0,0,1-1.86,2.78,8.79,8.79,0,0,1-2.86,1.84,10.43,10.43,0,0,1-7.25,0,8.74,8.74,0,0,1-2.85-1.84A8.18,8.18,0,0,1,52.58,147a9.66,9.66,0,0,1,0-7,8.32,8.32,0,0,1,1.86-2.79,8.72,8.72,0,0,1,2.85-1.83,10.29,10.29,0,0,1,7.25,0,8.76,8.76,0,0,1,2.86,1.83A8.32,8.32,0,0,1,69.26,140,9.21,9.21,0,0,1,69.92,143.53Zm-9,4.91a5.11,5.11,0,0,0,2-.36,4.32,4.32,0,0,0,1.5-1,4.45,4.45,0,0,0,1-1.56,5.85,5.85,0,0,0,0-3.93,4.45,4.45,0,0,0-1-1.56,4.16,4.16,0,0,0-1.5-1A5.38,5.38,0,0,0,59,139a4.16,4.16,0,0,0-1.5,1,4.45,4.45,0,0,0-1,1.56,5.85,5.85,0,0,0,0,3.93,4.45,4.45,0,0,0,1,1.56,4.32,4.32,0,0,0,1.5,1A5.11,5.11,0,0,0,60.92,148.44Z"/><path class="cls-1" d="M80.8,139.21h3.88v6.62a8.07,8.07,0,0,1-.46,2.81,5.46,5.46,0,0,1-1.28,2,5.15,5.15,0,0,1-2,1.23,7.51,7.51,0,0,1-2.58.41,7.86,7.86,0,0,1-2.59-.4,5.18,5.18,0,0,1-2-1.21,5.46,5.46,0,0,1-1.28-2,8.18,8.18,0,0,1-.45-2.84v-6.62h3.88v6.62a3,3,0,0,0,.67,2.19,2.62,2.62,0,0,0,3.52,0,3,3,0,0,0,.67-2.19Z"/><path class="cls-1" d="M94.81,144.82v-.11a2.29,2.29,0,0,0-.52-1.75,1.92,1.92,0,0,0-1.34-.47,2,2,0,0,0-1.35.47,2.33,2.33,0,0,0-.51,1.75V152H87.21v-7.27a7.49,7.49,0,0,1,.41-2.59,4.86,4.86,0,0,1,1.18-1.83,4.78,4.78,0,0,1,1.81-1.07,7.47,7.47,0,0,1,2.34-.35,7.58,7.58,0,0,1,2.35.35,4.56,4.56,0,0,1,1.81,1.09,4.87,4.87,0,0,1,1.16,1.86,7.56,7.56,0,0,1,.42,2.65Z"/><path class="cls-2" d="M108.35,140.14a1.79,1.79,0,0,0-.51-1.25,2.72,2.72,0,0,0-3.2,0,1.74,1.74,0,0,0-.47,1.2,1,1,0,0,0,.62,1,6.72,6.72,0,0,0,1.55.5l2,.4a6.57,6.57,0,0,1,2,.72,4.33,4.33,0,0,1,1.55,1.49,4.9,4.9,0,0,1,.62,2.65,5.51,5.51,0,0,1-.45,2.27,4.76,4.76,0,0,1-1.29,1.72,6.14,6.14,0,0,1-2,1.1,8.87,8.87,0,0,1-5.17,0,6,6,0,0,1-2-1.06,4.66,4.66,0,0,1-1.31-1.67,5.4,5.4,0,0,1-.49-2.22h4.09a1.63,1.63,0,0,0,.51,1.27,3.6,3.6,0,0,0,3.52,0,1.63,1.63,0,0,0,.52-1.27,1,1,0,0,0-.37-.84,2.5,2.5,0,0,0-.94-.46,9.78,9.78,0,0,0-1.33-.3c-.5-.09-1-.19-1.53-.31a10.75,10.75,0,0,1-1.52-.49,4.34,4.34,0,0,1-1.33-.86,4.07,4.07,0,0,1-1-1.39,6,6,0,0,1,.08-4.32,5.24,5.24,0,0,1,1.23-1.74,5.52,5.52,0,0,1,1.91-1.14,7.33,7.33,0,0,1,2.5-.4,7.12,7.12,0,0,1,2.41.39,5.61,5.61,0,0,1,1.9,1.08,4.84,4.84,0,0,1,1.26,1.7,5.76,5.76,0,0,1,.5,2.18Z"/><path class="cls-2" d="M125.34,146.94a6.63,6.63,0,0,1-.39,2.38,4.59,4.59,0,0,1-1.1,1.68,4.47,4.47,0,0,1-1.69,1,7.55,7.55,0,0,1-4.35,0,4.47,4.47,0,0,1-1.69-1,4.59,4.59,0,0,1-1.1-1.68,6.63,6.63,0,0,1-.39-2.38V135.1h3.88v4.11h6v3.49h-6v4.24a1.81,1.81,0,0,0,.42,1.38,1.65,1.65,0,0,0,2.11,0,1.81,1.81,0,0,0,.42-1.38v-.39h3.88Z"/><path class="cls-2" d="M140.43,145.59a7.19,7.19,0,0,1-.5,2.69,6.17,6.17,0,0,1-1.42,2.13,6.63,6.63,0,0,1-2.19,1.4,7.92,7.92,0,0,1-5.54,0,6.54,6.54,0,0,1-2.17-1.4,6.06,6.06,0,0,1-1.43-2.13,7.46,7.46,0,0,1,0-5.37,6.19,6.19,0,0,1,1.43-2.14,6.52,6.52,0,0,1,2.17-1.39,7.78,7.78,0,0,1,5.54,0,6.61,6.61,0,0,1,2.19,1.39,6.31,6.31,0,0,1,1.42,2.14A7.14,7.14,0,0,1,140.43,145.59Zm-6.87,3.11a2.82,2.82,0,0,0,2.13-.86,3.53,3.53,0,0,0,0-4.5,3.11,3.11,0,0,0-4.27,0,3.53,3.53,0,0,0,0,4.5A2.84,2.84,0,0,0,133.56,148.7Z"/><path class="cls-2" d="M150.05,144.82v-.11a2.29,2.29,0,0,0-.52-1.75,1.92,1.92,0,0,0-1.34-.47,2,2,0,0,0-1.35.47,2.33,2.33,0,0,0-.51,1.75V152h-3.88v-7.27a7.49,7.49,0,0,1,.41-2.59,4.86,4.86,0,0,1,1.18-1.83,4.78,4.78,0,0,1,1.81-1.07,7.38,7.38,0,0,1,2.34-.35,7.58,7.58,0,0,1,2.35.35,4.56,4.56,0,0,1,1.81,1.09,4.87,4.87,0,0,1,1.16,1.86,7.57,7.57,0,0,1,.41,2.65Z"/><path class="cls-2" d="M161.81,148.49a2.31,2.31,0,0,0,1.74-.7,3,3,0,0,0,.69-2.17v-6.41h3.88v12.33a7.21,7.21,0,0,1-.51,2.86,5.18,5.18,0,0,1-3.36,3,8.57,8.57,0,0,1-2.47.35,8.41,8.41,0,0,1-2.16-.27,5.87,5.87,0,0,1-1.83-.83,5,5,0,0,1-1.38-1.41,5.67,5.67,0,0,1-.81-2h3.88a1.79,1.79,0,0,0,.83.92,3.33,3.33,0,0,0,1.47.27,2.43,2.43,0,0,0,1.88-.64,3.1,3.1,0,0,0,.58-2.1v-1.19h-.05a3.86,3.86,0,0,1-1.32,1.19,3.76,3.76,0,0,1-1.81.44,5.83,5.83,0,0,1-2-.36,5,5,0,0,1-1.79-1.14,5.94,5.94,0,0,1-1.28-2,7.94,7.94,0,0,1-.49-3v-6.41h3.88v6.41a3,3,0,0,0,.67,2.2A2.41,2.41,0,0,0,161.81,148.49Z"/><path class="cls-3" d="M111.34,102.12a46.93,46.93,0,0,0,8.11-2.21,139.5,139.5,0,0,0,10.49-22c-1.62,1.13-3.11,1-5.23,1.34,0,0,2.29-.24,5.73-2.68a171.65,171.65,0,0,0,6.18-20.21,151.33,151.33,0,0,0-15.84,14l.38,1.91-1.52-.74q-3.63,3.79-6.71,7.54c.26,1.18.55,2.53.87,4a11.05,11.05,0,0,1-1.57-3.1,128.32,128.32,0,0,0-9.77,13.75c.08,2.17.2,4.61.33,6a17.73,17.73,0,0,1-1.16-4.65,112.9,112.9,0,0,0-6.53,12.66,17.79,17.79,0,0,1,.42,3.5,15.63,15.63,0,0,1-.88-2.43,72.24,72.24,0,0,0-4.87,15.28l1.61,1a37.87,37.87,0,0,0,15.83-9.42l-2.22.43,2.73-.91a74.32,74.32,0,0,0,11.22-14.4A21.19,21.19,0,0,1,111.34,102.12Z"/><path class="cls-2" d="M130.44,76.54a174.43,174.43,0,0,0,6.13-20c-7.06,8.37-40.43,59.59-45.91,68l.72.44a37.87,37.87,0,0,0,15.83-9.42l-2.22.43,2.73-.91a74.32,74.32,0,0,0,11.22-14.4,21.19,21.19,0,0,1-7.6,1.38,46.93,46.93,0,0,0,8.11-2.21,139.5,139.5,0,0,0,10.49-22c-1.6,1.12-3.08,1-5.18,1.34A14.15,14.15,0,0,0,130.44,76.54Z"/><path class="cls-2" d="M89.84,123.69c0,.24-.07.37-.07.37l.08,0C89.84,124,89.84,123.83,89.84,123.69Z"/><path class="cls-1" d="M130.77,64.39C95,113,90.66,121.59,90.66,121.59l-7.23,11.95a.1.1,0,0,0,.15.12,22.19,22.19,0,0,1,4.84-3.3,1,1,0,0,0,.38-.4c.34-.65,1.23-2.38,1.51-3C95.34,117.25,130.77,64.39,130.77,64.39Z"/><polygon class="cls-2" points="73.7 116.17 51.92 99.25 51.92 90.77 73.7 107.68 73.7 116.17"/><polygon class="cls-1" points="73.7 73.85 51.92 90.77 51.92 99.25 73.7 82.34 73.7 73.85"/><polygon class="cls-2" points="146.34 73.85 168.12 90.77 168.12 99.25 146.34 82.34 146.34 73.85"/><polygon class="cls-1" points="146.34 116.17 168.12 99.25 168.12 90.77 146.34 107.68 146.34 116.17"/><path class="cls-2" d="M83.38,162.56H80.91v-3.35h2.47V160H81.74v.55h1.35v.66H81.74v.6h1.64Z"/><path class="cls-2" d="M85.53,162.56H84.6L83.69,160h.83l.55,1.78h0l.55-1.78h.8Z"/><path class="cls-2" d="M89.24,161.51h-1.9a.51.51,0,0,0,.56.42.56.56,0,0,0,.48-.18h.79a1.16,1.16,0,0,1-.46.63,1.38,1.38,0,0,1-.81.24,1.33,1.33,0,0,1-1-.38,1.39,1.39,0,0,1,0-1.91,1.47,1.47,0,0,1,2,0,1.3,1.3,0,0,1,.37,1Zm-1.34-.86a.52.52,0,0,0-.55.36v0h1.11v0A.54.54,0,0,0,87.9,160.65Z"/><path class="cls-2" d="M91.92,161.14h-.77v0c0-.29-.12-.44-.37-.44s-.37.15-.37.44v1.44h-.77v-1.44a1.14,1.14,0,0,1,.31-.86,1.33,1.33,0,0,1,1.66,0A1.19,1.19,0,0,1,91.92,161.14Z"/><path class="cls-2" d="M93.53,161.87a.48.48,0,0,0,.35-.14.67.67,0,0,0,.13-.43V160h.77v2.44a1.17,1.17,0,0,1-.35.93,1.31,1.31,0,0,1-.91.31,1.4,1.4,0,0,1-.8-.23,1,1,0,0,1-.42-.67h.77a.57.57,0,0,0,.82.1.57.57,0,0,0,.12-.41v-.24h0a.69.69,0,0,1-.62.33,1.1,1.1,0,0,1-.78-.32,1.35,1.35,0,0,1-.32-1V160h.77v1.27Q93.05,161.87,93.53,161.87Z"/><path class="cls-2" d="M97.48,161.49v.07a1.11,1.11,0,0,1-1.84.8,1.05,1.05,0,0,1-.28-.8v-2.34h.77V160h1.2v.69h-1.2v.84c0,.23.1.35.29.35s.29-.12.29-.35v-.07Z"/><path class="cls-2" d="M99.18,160.68a.44.44,0,0,0-.35.15.57.57,0,0,0-.13.42v1.31h-.77v-3.63h.77v1.36h0a.68.68,0,0,1,.62-.32,1,1,0,0,1,.77.32,1.27,1.27,0,0,1,.33,1v1.31h-.77v-1.31Q99.66,160.68,99.18,160.68Z"/><path class="cls-2" d="M101.74,159.66a.45.45,0,0,1-.35.14.44.44,0,0,1-.34-.14.48.48,0,0,1,0-.7.48.48,0,0,1,.34-.14.48.48,0,0,1,.35.14.48.48,0,0,1,0,.7Zm0,2.9H101V160h.77Z"/><path class="cls-2" d="M104.86,162.56h-.77v-1.31q0-.57-.48-.57t-.48.57v1.31h-.77v-1.31a1.16,1.16,0,0,1,1.25-1.28,1.22,1.22,0,0,1,.91.33,1.24,1.24,0,0,1,.34.95Z"/><path class="cls-2" d="M107.2,162.39v-.13h0a.81.81,0,0,1-.72.33,1.25,1.25,0,0,1-.42-.08,1.19,1.19,0,0,1-.38-.21,1.07,1.07,0,0,1-.3-.41,1.55,1.55,0,0,1-.11-.59,1.3,1.3,0,0,1,.38-1,1.33,1.33,0,0,1,1-.37,1.36,1.36,0,0,1,1,.36,1.34,1.34,0,0,1,.37,1v1.05a1.28,1.28,0,0,1-.37,1,1.41,1.41,0,0,1-1,.33,1.48,1.48,0,0,1-.84-.23,1.06,1.06,0,0,1-.46-.67h.78c.07.15.25.23.51.23a.59.59,0,0,0,.44-.15A.68.68,0,0,0,107.2,162.39Zm-.16-.67a.54.54,0,0,0,.16-.42.64.64,0,0,0-.16-.45.57.57,0,0,0-.42-.17.56.56,0,0,0-.42.17.64.64,0,0,0-.16.45.57.57,0,0,0,.15.42.61.61,0,0,0,.43.15A.57.57,0,0,0,107,161.72Z"/><path class="cls-2" d="M112,159.66a.51.51,0,0,1-.7,0,.51.51,0,0,1,0-.7.51.51,0,0,1,.7,0,.51.51,0,0,1,0,.7Zm0,2.9h-.76V160H112Z"/><path class="cls-2" d="M114.63,160.78h-.74q0-.18-.27-.18c-.19,0-.28.07-.28.22s0,.09.1.12a.83.83,0,0,0,.25.06l.32.06a1.59,1.59,0,0,1,.33.1.58.58,0,0,1,.25.22.82.82,0,0,1,.1.4.74.74,0,0,1-.3.61,1.21,1.21,0,0,1-.78.24,1.19,1.19,0,0,1-.78-.24.71.71,0,0,1-.3-.6h.75c0,.14.11.2.32.2a.48.48,0,0,0,.24-.05.22.22,0,0,0,.07-.16.15.15,0,0,0-.1-.13.83.83,0,0,0-.25-.06l-.32-.05-.33-.11a.5.5,0,0,1-.24-.22.71.71,0,0,1-.1-.39.75.75,0,0,1,.28-.61,1.13,1.13,0,0,1,.75-.24,1.09,1.09,0,0,1,.74.23A.72.72,0,0,1,114.63,160.78Z"/><path class="cls-2" d="M117.81,163.64v-2.32a1.34,1.34,0,0,1,.37-1,1.36,1.36,0,0,1,1-.36,1.34,1.34,0,0,1,1,.37,1.3,1.3,0,0,1,.38,1,1.64,1.64,0,0,1-.11.6,1.18,1.18,0,0,1-.3.41,1.33,1.33,0,0,1-.39.24,1.15,1.15,0,0,1-.41.08.81.81,0,0,1-.72-.33h0v1.34Zm1.77-2.79a.57.57,0,0,0-.42-.17.54.54,0,0,0-.42.17.64.64,0,0,0-.17.45.62.62,0,0,0,.17.44.54.54,0,0,0,.42.17.57.57,0,0,0,.42-.17.61.61,0,0,0,.16-.44A.64.64,0,0,0,119.58,160.85Z"/><path class="cls-2" d="M123.19,161.14h-.77v0c0-.29-.12-.44-.37-.44s-.36.15-.36.44v1.44h-.77v-1.44a1.19,1.19,0,0,1,2-.86A1.19,1.19,0,0,1,123.19,161.14Z"/><path class="cls-2" d="M126.16,161.32v1.24h-.7v-.39h0a.68.68,0,0,1-.3.33.86.86,0,0,1-.48.13,1.25,1.25,0,0,1-.42-.08,1.33,1.33,0,0,1-.39-.24,1.18,1.18,0,0,1-.3-.41,1.64,1.64,0,0,1-.11-.6,1.3,1.3,0,0,1,.38-1,1.35,1.35,0,0,1,2.33,1Zm-1.77.42a.57.57,0,0,0,.42.17.58.58,0,0,0,.43-.17.66.66,0,0,0,.16-.44.69.69,0,0,0-.16-.45.58.58,0,0,0-.43-.17.57.57,0,0,0-.42.17.64.64,0,0,0-.16.45A.61.61,0,0,0,124.39,161.74Z"/><path class="cls-2" d="M129.25,161h-.78a.55.55,0,0,0-.54-.35.58.58,0,0,0-.43.17.69.69,0,0,0-.16.45.66.66,0,0,0,.16.44.58.58,0,0,0,.43.17.54.54,0,0,0,.54-.34h.78a1.28,1.28,0,0,1-.44.76,1.45,1.45,0,0,1-1.86-.08,1.36,1.36,0,0,1,0-1.91,1.48,1.48,0,0,1,1.86-.08A1.3,1.3,0,0,1,129.25,161Z"/><path class="cls-2" d="M131.75,161.49v.07a1.05,1.05,0,0,1-.28.8,1.25,1.25,0,0,1-1.55,0,1.06,1.06,0,0,1-.29-.8v-2.34h.77V160h1.2v.69h-1.2v.84c0,.23.1.35.29.35s.3-.12.3-.35v-.07Z"/><path class="cls-2" d="M132.94,159.66a.47.47,0,0,1-.35.14.5.5,0,0,1-.35-.84.48.48,0,0,1,.35-.14.52.52,0,0,1,.35.14.51.51,0,0,1,0,.7Zm0,2.9h-.77V160H133Z"/><path class="cls-2" d="M136.13,161h-.77a.55.55,0,0,0-.55-.35.57.57,0,0,0-.42.17.64.64,0,0,0-.16.45.61.61,0,0,0,.16.44.57.57,0,0,0,.42.17.54.54,0,0,0,.55-.34h.77a1.19,1.19,0,0,1-.44.76,1.3,1.3,0,0,1-.88.3,1.35,1.35,0,0,1-1-.38,1.39,1.39,0,0,1,0-1.91,1.34,1.34,0,0,1,1-.37,1.3,1.3,0,0,1,.88.29A1.21,1.21,0,0,1,136.13,161Z"/><path class="cls-2" d="M139.13,161.51h-1.91a.51.51,0,0,0,.56.42.54.54,0,0,0,.48-.18h.8a1.23,1.23,0,0,1-.47.63,1.38,1.38,0,0,1-.81.24,1.35,1.35,0,0,1-1-.38,1.39,1.39,0,0,1,0-1.91,1.34,1.34,0,0,1,1-.37,1.28,1.28,0,0,1,1.35,1.33Zm-1.35-.86a.53.53,0,0,0-.55.36v0h1.11v0A.53.53,0,0,0,137.78,160.65Z"/></svg>